<?xml version="1.0" encoding="utf-8"?>
<!-- Generator: Adobe Illustrator 25.2.3, SVG Export Plug-In . SVG Version: 6.00 Build 0)  -->
<svg version="1.1" id="iconmonstr" xmlns="http://www.w3.org/2000/svg" xmlns:xlink="http://www.w3.org/1999/xlink" x="0px" y="0px"
	 viewBox="0 0 24 24" style="enable-background:new 0 0 24 24;" xml:space="preserve">
<path id="check-mark-14" d="M21.856,10.303C21.941,10.857,22,11.421,22,12c0,6.075-4.925,11-11,11S0,18.075,0,12S4.925,1,11,1
	c2.348,0,4.518,0.741,6.304,1.993L15.882,4.45C14.474,3.537,12.8,3,11,3c-4.962,0-9,4.038-9,9c0,4.963,4.038,9,9,9
	c4.894,0,8.879-3.928,8.989-8.795L21.856,10.303z M20.903,2.167L11.5,11.806L7.657,8.192L4.562,11.29L11.5,18L24,5.263L20.903,2.167
	z"/>
</svg>
