<?xml version="1.0" encoding="utf-8"?>
<!-- Generator: Adobe Illustrator 25.2.3, SVG Export Plug-In . SVG Version: 6.00 Build 0)  -->
<svg version="1.1" id="iconmonstr" xmlns="http://www.w3.org/2000/svg" xmlns:xlink="http://www.w3.org/1999/xlink" x="0px" y="0px"
	 viewBox="0 0 24 24" style="enable-background:new 0 0 24 24;" xml:space="preserve">
<path id="x-mark-8" d="M24,3.752L19.577,0l-7.771,9.039L4.159,0.031L0,4.309c2.285,2.885,5.284,5.903,8.362,8.708l-8.165,9.447
	l1.343,1.487c1.978-1.335,5.981-4.374,10.205-7.958c4.304,3.67,8.306,6.662,10.229,8.006l1.449-1.278l-8.255-9.724
	C18.456,10.024,21.753,6.643,24,3.752z"/>
<g>
	<path d="M21.655,12.219c0,2.025-0.604,3.909-1.632,5.493l0.675,0.795c1.232-1.79,1.957-3.955,1.957-6.288
		c0-1.673-0.382-3.254-1.046-4.679c-0.229,0.28-0.473,0.554-0.72,0.826C21.38,9.555,21.655,10.855,21.655,12.219z"/>
	<path d="M2.28,8.126C2.036,7.838,1.812,7.543,1.596,7.243c-0.754,1.5-1.189,3.186-1.189,4.976c0,2.439,0.798,4.69,2.135,6.525
		l0.668-0.773c-1.134-1.635-1.803-3.616-1.803-5.752C1.407,10.762,1.723,9.379,2.28,8.126z"/>
	<path d="M16.606,20.965c-1.494,0.87-3.225,1.378-5.075,1.378c-1.735,0-3.368-0.44-4.797-1.212
		c-0.263,0.243-0.525,0.476-0.785,0.694c1.643,0.959,3.547,1.518,5.582,1.518c2.162,0,4.174-0.63,5.884-1.701
		C17.147,21.427,16.878,21.203,16.606,20.965z"/>
	<path d="M7.409,2.981c1.261-0.565,2.653-0.886,4.122-0.886c1.474,0,2.871,0.324,4.135,0.893l0.657-0.792
		c-1.454-0.698-3.075-1.101-4.793-1.101c-1.708,0-3.32,0.398-4.768,1.089L7.409,2.981z"/>
</g>
</svg>
